<mxfile host="app.diagrams.net" modified="2023-11-11T11:58:06.128Z" agent="Mozilla/5.0 (Windows NT 10.0; Win64; x64) AppleWebKit/537.36 (KHTML, like Gecko) Chrome/118.0.0.0 Safari/537.36" etag="MzfoiTZr-4wiXtQYqjN6" version="22.1.0" type="github">
  <diagram name="第 1 页" id="a_Lzv6PNQjRcOAd5M_am">
    <mxGraphModel dx="989" dy="541" grid="1" gridSize="10" guides="1" tooltips="1" connect="1" arrows="1" fold="1" page="1" pageScale="1" pageWidth="827" pageHeight="1169" math="0" shadow="0">
      <root>
        <mxCell id="0" />
        <mxCell id="1" parent="0" />
        <mxCell id="gHPmyK4DkFUgCclRizUP-3" value="" style="endArrow=open;startArrow=oval;endFill=0;startFill=0;endSize=8;html=1;rounded=0;" edge="1" parent="1">
          <mxGeometry width="160" relative="1" as="geometry">
            <mxPoint x="610" y="520" as="sourcePoint" />
            <mxPoint x="680" y="520" as="targetPoint" />
          </mxGeometry>
        </mxCell>
        <mxCell id="gHPmyK4DkFUgCclRizUP-6" value="" style="endArrow=none;html=1;rounded=0;startArrow=oval;startFill=0;" edge="1" parent="1">
          <mxGeometry width="50" height="50" relative="1" as="geometry">
            <mxPoint x="480" y="520" as="sourcePoint" />
            <mxPoint x="610" y="520" as="targetPoint" />
          </mxGeometry>
        </mxCell>
        <mxCell id="gHPmyK4DkFUgCclRizUP-7" value="" style="endArrow=none;html=1;rounded=0;startArrow=oval;startFill=0;" edge="1" parent="1">
          <mxGeometry width="50" height="50" relative="1" as="geometry">
            <mxPoint x="349" y="520" as="sourcePoint" />
            <mxPoint x="479" y="520" as="targetPoint" />
          </mxGeometry>
        </mxCell>
        <mxCell id="gHPmyK4DkFUgCclRizUP-8" value="" style="endArrow=none;html=1;rounded=0;startArrow=oval;startFill=0;" edge="1" parent="1">
          <mxGeometry width="50" height="50" relative="1" as="geometry">
            <mxPoint x="220" y="520" as="sourcePoint" />
            <mxPoint x="350" y="520" as="targetPoint" />
          </mxGeometry>
        </mxCell>
        <mxCell id="gHPmyK4DkFUgCclRizUP-9" value="" style="endArrow=none;html=1;rounded=0;startArrow=none;startFill=0;" edge="1" parent="1">
          <mxGeometry width="50" height="50" relative="1" as="geometry">
            <mxPoint x="170" y="520" as="sourcePoint" />
            <mxPoint x="220" y="520" as="targetPoint" />
          </mxGeometry>
        </mxCell>
        <mxCell id="gHPmyK4DkFUgCclRizUP-11" value="" style="endArrow=none;html=1;rounded=0;startArrow=none;startFill=0;endFill=0;" edge="1" parent="1">
          <mxGeometry width="50" height="50" relative="1" as="geometry">
            <mxPoint x="220" y="510" as="sourcePoint" />
            <mxPoint x="480" y="450" as="targetPoint" />
            <Array as="points">
              <mxPoint x="220" y="450" />
            </Array>
          </mxGeometry>
        </mxCell>
        <mxCell id="gHPmyK4DkFUgCclRizUP-12" value="" style="endArrow=classic;html=1;rounded=0;" edge="1" parent="1">
          <mxGeometry width="50" height="50" relative="1" as="geometry">
            <mxPoint x="480" y="450" as="sourcePoint" />
            <mxPoint x="480" y="510" as="targetPoint" />
          </mxGeometry>
        </mxCell>
        <mxCell id="gHPmyK4DkFUgCclRizUP-13" value="领取案卷集1" style="text;html=1;align=center;verticalAlign=middle;resizable=0;points=[];autosize=1;strokeColor=none;fillColor=none;" vertex="1" parent="1">
          <mxGeometry x="175" y="518" width="90" height="30" as="geometry" />
        </mxCell>
        <mxCell id="gHPmyK4DkFUgCclRizUP-14" value="领取案卷集2" style="text;html=1;align=center;verticalAlign=middle;resizable=0;points=[];autosize=1;strokeColor=none;fillColor=none;" vertex="1" parent="1">
          <mxGeometry x="300" y="518" width="90" height="30" as="geometry" />
        </mxCell>
        <mxCell id="gHPmyK4DkFUgCclRizUP-15" value="提交案卷集1" style="text;html=1;align=center;verticalAlign=middle;resizable=0;points=[];autosize=1;strokeColor=none;fillColor=none;" vertex="1" parent="1">
          <mxGeometry x="440" y="518" width="90" height="30" as="geometry" />
        </mxCell>
        <mxCell id="gHPmyK4DkFUgCclRizUP-16" value="提交案卷集2" style="text;html=1;align=center;verticalAlign=middle;resizable=0;points=[];autosize=1;strokeColor=none;fillColor=none;" vertex="1" parent="1">
          <mxGeometry x="570" y="518" width="90" height="30" as="geometry" />
        </mxCell>
        <mxCell id="gHPmyK4DkFUgCclRizUP-17" value="" style="endArrow=none;html=1;rounded=0;startArrow=none;startFill=0;endFill=0;" edge="1" parent="1">
          <mxGeometry width="50" height="50" relative="1" as="geometry">
            <mxPoint x="350" y="510" as="sourcePoint" />
            <mxPoint x="610" y="430" as="targetPoint" />
            <Array as="points">
              <mxPoint x="350" y="430" />
              <mxPoint x="480" y="430" />
            </Array>
          </mxGeometry>
        </mxCell>
        <mxCell id="gHPmyK4DkFUgCclRizUP-19" value="" style="endArrow=classic;html=1;rounded=0;" edge="1" parent="1">
          <mxGeometry width="50" height="50" relative="1" as="geometry">
            <mxPoint x="610" y="430" as="sourcePoint" />
            <mxPoint x="610" y="510" as="targetPoint" />
          </mxGeometry>
        </mxCell>
        <mxCell id="gHPmyK4DkFUgCclRizUP-20" value="" style="endArrow=open;startArrow=oval;endFill=0;startFill=0;endSize=8;html=1;rounded=0;" edge="1" parent="1">
          <mxGeometry width="160" relative="1" as="geometry">
            <mxPoint x="610" y="320" as="sourcePoint" />
            <mxPoint x="760" y="320" as="targetPoint" />
          </mxGeometry>
        </mxCell>
        <mxCell id="gHPmyK4DkFUgCclRizUP-21" value="" style="endArrow=none;html=1;rounded=0;startArrow=oval;startFill=0;" edge="1" parent="1">
          <mxGeometry width="50" height="50" relative="1" as="geometry">
            <mxPoint x="480" y="320" as="sourcePoint" />
            <mxPoint x="610" y="320" as="targetPoint" />
          </mxGeometry>
        </mxCell>
        <mxCell id="gHPmyK4DkFUgCclRizUP-22" value="" style="endArrow=none;html=1;rounded=0;startArrow=oval;startFill=0;" edge="1" parent="1">
          <mxGeometry width="50" height="50" relative="1" as="geometry">
            <mxPoint x="349" y="320" as="sourcePoint" />
            <mxPoint x="479" y="320" as="targetPoint" />
          </mxGeometry>
        </mxCell>
        <mxCell id="gHPmyK4DkFUgCclRizUP-23" value="" style="endArrow=none;html=1;rounded=0;startArrow=oval;startFill=0;" edge="1" parent="1">
          <mxGeometry width="50" height="50" relative="1" as="geometry">
            <mxPoint x="220" y="320" as="sourcePoint" />
            <mxPoint x="350" y="320" as="targetPoint" />
          </mxGeometry>
        </mxCell>
        <mxCell id="gHPmyK4DkFUgCclRizUP-24" value="" style="endArrow=none;html=1;rounded=0;startArrow=none;startFill=0;" edge="1" parent="1">
          <mxGeometry width="50" height="50" relative="1" as="geometry">
            <mxPoint x="170" y="320" as="sourcePoint" />
            <mxPoint x="220" y="320" as="targetPoint" />
          </mxGeometry>
        </mxCell>
        <mxCell id="gHPmyK4DkFUgCclRizUP-25" value="" style="endArrow=none;html=1;rounded=0;startArrow=none;startFill=0;endFill=0;" edge="1" parent="1">
          <mxGeometry width="50" height="50" relative="1" as="geometry">
            <mxPoint x="220" y="310" as="sourcePoint" />
            <mxPoint x="350" y="250" as="targetPoint" />
            <Array as="points">
              <mxPoint x="220" y="250" />
            </Array>
          </mxGeometry>
        </mxCell>
        <mxCell id="gHPmyK4DkFUgCclRizUP-26" value="" style="endArrow=classic;html=1;rounded=0;" edge="1" parent="1">
          <mxGeometry width="50" height="50" relative="1" as="geometry">
            <mxPoint x="350" y="250" as="sourcePoint" />
            <mxPoint x="350" y="310" as="targetPoint" />
          </mxGeometry>
        </mxCell>
        <mxCell id="gHPmyK4DkFUgCclRizUP-27" value="领取案卷集1" style="text;html=1;align=center;verticalAlign=middle;resizable=0;points=[];autosize=1;strokeColor=none;fillColor=none;" vertex="1" parent="1">
          <mxGeometry x="160" y="318" width="90" height="30" as="geometry" />
        </mxCell>
        <mxCell id="gHPmyK4DkFUgCclRizUP-28" value="提交案卷集1" style="text;html=1;align=center;verticalAlign=middle;resizable=0;points=[];autosize=1;strokeColor=none;fillColor=none;" vertex="1" parent="1">
          <mxGeometry x="324" y="318" width="90" height="30" as="geometry" />
        </mxCell>
        <mxCell id="gHPmyK4DkFUgCclRizUP-29" value="领取案卷集2" style="text;html=1;align=center;verticalAlign=middle;resizable=0;points=[];autosize=1;strokeColor=none;fillColor=none;" vertex="1" parent="1">
          <mxGeometry x="440" y="318" width="90" height="30" as="geometry" />
        </mxCell>
        <mxCell id="gHPmyK4DkFUgCclRizUP-30" value="提交案卷集2" style="text;html=1;align=center;verticalAlign=middle;resizable=0;points=[];autosize=1;strokeColor=none;fillColor=none;" vertex="1" parent="1">
          <mxGeometry x="570" y="318" width="90" height="30" as="geometry" />
        </mxCell>
        <mxCell id="gHPmyK4DkFUgCclRizUP-31" value="" style="endArrow=none;html=1;rounded=0;startArrow=none;startFill=0;endFill=0;" edge="1" parent="1">
          <mxGeometry width="50" height="50" relative="1" as="geometry">
            <mxPoint x="480" y="310" as="sourcePoint" />
            <mxPoint x="610" y="230" as="targetPoint" />
            <Array as="points">
              <mxPoint x="480" y="230" />
            </Array>
          </mxGeometry>
        </mxCell>
        <mxCell id="gHPmyK4DkFUgCclRizUP-32" value="" style="endArrow=classic;html=1;rounded=0;" edge="1" parent="1">
          <mxGeometry width="50" height="50" relative="1" as="geometry">
            <mxPoint x="610" y="230" as="sourcePoint" />
            <mxPoint x="610" y="310" as="targetPoint" />
          </mxGeometry>
        </mxCell>
        <mxCell id="gHPmyK4DkFUgCclRizUP-33" value="" style="endArrow=none;html=1;rounded=0;startArrow=oval;startFill=0;" edge="1" parent="1">
          <mxGeometry width="50" height="50" relative="1" as="geometry">
            <mxPoint x="290" y="320" as="sourcePoint" />
            <mxPoint x="220" y="320" as="targetPoint" />
          </mxGeometry>
        </mxCell>
        <mxCell id="gHPmyK4DkFUgCclRizUP-34" value="" style="endArrow=none;html=1;rounded=0;startArrow=oval;startFill=0;" edge="1" parent="1">
          <mxGeometry width="50" height="50" relative="1" as="geometry">
            <mxPoint x="710" y="320" as="sourcePoint" />
            <mxPoint x="760" y="320" as="targetPoint" />
          </mxGeometry>
        </mxCell>
        <mxCell id="gHPmyK4DkFUgCclRizUP-35" value="" style="endArrow=none;html=1;rounded=0;startArrow=none;startFill=0;endFill=0;" edge="1" parent="1">
          <mxGeometry width="50" height="50" relative="1" as="geometry">
            <mxPoint x="290" y="318" as="sourcePoint" />
            <mxPoint x="710" y="260" as="targetPoint" />
            <Array as="points">
              <mxPoint x="290" y="258" />
            </Array>
          </mxGeometry>
        </mxCell>
        <mxCell id="gHPmyK4DkFUgCclRizUP-36" value="" style="endArrow=classic;html=1;rounded=0;" edge="1" parent="1">
          <mxGeometry width="50" height="50" relative="1" as="geometry">
            <mxPoint x="710" y="260" as="sourcePoint" />
            <mxPoint x="710" y="310" as="targetPoint" />
          </mxGeometry>
        </mxCell>
        <mxCell id="gHPmyK4DkFUgCclRizUP-37" value="提交案卷集3" style="text;html=1;align=center;verticalAlign=middle;resizable=0;points=[];autosize=1;strokeColor=none;fillColor=none;" vertex="1" parent="1">
          <mxGeometry x="660" y="318" width="90" height="30" as="geometry" />
        </mxCell>
        <mxCell id="gHPmyK4DkFUgCclRizUP-38" value="领取案卷集3" style="text;html=1;align=center;verticalAlign=middle;resizable=0;points=[];autosize=1;strokeColor=none;fillColor=none;" vertex="1" parent="1">
          <mxGeometry x="250" y="318" width="90" height="30" as="geometry" />
        </mxCell>
        <mxCell id="gHPmyK4DkFUgCclRizUP-39" value="" style="endArrow=open;startArrow=oval;endFill=0;startFill=0;endSize=8;html=1;rounded=0;entryX=1;entryY=0.067;entryDx=0;entryDy=0;entryPerimeter=0;" edge="1" parent="1" target="gHPmyK4DkFUgCclRizUP-49">
          <mxGeometry width="160" relative="1" as="geometry">
            <mxPoint x="600" y="675" as="sourcePoint" />
            <mxPoint x="685" y="675" as="targetPoint" />
          </mxGeometry>
        </mxCell>
        <mxCell id="gHPmyK4DkFUgCclRizUP-40" value="" style="endArrow=none;html=1;rounded=0;startArrow=oval;startFill=0;" edge="1" parent="1">
          <mxGeometry width="50" height="50" relative="1" as="geometry">
            <mxPoint x="485" y="675" as="sourcePoint" />
            <mxPoint x="615" y="675" as="targetPoint" />
          </mxGeometry>
        </mxCell>
        <mxCell id="gHPmyK4DkFUgCclRizUP-41" value="" style="endArrow=none;html=1;rounded=0;startArrow=oval;startFill=0;" edge="1" parent="1">
          <mxGeometry width="50" height="50" relative="1" as="geometry">
            <mxPoint x="360" y="675" as="sourcePoint" />
            <mxPoint x="484" y="675" as="targetPoint" />
          </mxGeometry>
        </mxCell>
        <mxCell id="gHPmyK4DkFUgCclRizUP-42" value="" style="endArrow=none;html=1;rounded=0;startArrow=oval;startFill=0;" edge="1" parent="1">
          <mxGeometry width="50" height="50" relative="1" as="geometry">
            <mxPoint x="225" y="675" as="sourcePoint" />
            <mxPoint x="360" y="675" as="targetPoint" />
            <Array as="points">
              <mxPoint x="320" y="675" />
            </Array>
          </mxGeometry>
        </mxCell>
        <mxCell id="gHPmyK4DkFUgCclRizUP-43" value="" style="endArrow=none;html=1;rounded=0;startArrow=none;startFill=0;" edge="1" parent="1">
          <mxGeometry width="50" height="50" relative="1" as="geometry">
            <mxPoint x="175" y="675" as="sourcePoint" />
            <mxPoint x="225" y="675" as="targetPoint" />
          </mxGeometry>
        </mxCell>
        <mxCell id="gHPmyK4DkFUgCclRizUP-44" value="" style="endArrow=none;html=1;rounded=0;startArrow=none;startFill=0;endFill=0;" edge="1" parent="1">
          <mxGeometry width="50" height="50" relative="1" as="geometry">
            <mxPoint x="228" y="660" as="sourcePoint" />
            <mxPoint x="362.5" y="610" as="targetPoint" />
            <Array as="points">
              <mxPoint x="227.5" y="610" />
            </Array>
          </mxGeometry>
        </mxCell>
        <mxCell id="gHPmyK4DkFUgCclRizUP-45" value="" style="endArrow=classic;html=1;rounded=0;" edge="1" parent="1">
          <mxGeometry width="50" height="50" relative="1" as="geometry">
            <mxPoint x="360" y="610" as="sourcePoint" />
            <mxPoint x="360" y="663" as="targetPoint" />
            <Array as="points">
              <mxPoint x="360" y="653" />
            </Array>
          </mxGeometry>
        </mxCell>
        <mxCell id="gHPmyK4DkFUgCclRizUP-46" value="领取案卷集1" style="text;html=1;align=center;verticalAlign=middle;resizable=0;points=[];autosize=1;strokeColor=none;fillColor=none;" vertex="1" parent="1">
          <mxGeometry x="180" y="673" width="90" height="30" as="geometry" />
        </mxCell>
        <mxCell id="gHPmyK4DkFUgCclRizUP-47" value="提取案卷集1" style="text;html=1;align=center;verticalAlign=middle;resizable=0;points=[];autosize=1;strokeColor=none;fillColor=none;" vertex="1" parent="1">
          <mxGeometry x="310" y="673" width="90" height="30" as="geometry" />
        </mxCell>
        <mxCell id="gHPmyK4DkFUgCclRizUP-48" value="领取案卷集2" style="text;html=1;align=center;verticalAlign=middle;resizable=0;points=[];autosize=1;strokeColor=none;fillColor=none;" vertex="1" parent="1">
          <mxGeometry x="445" y="673" width="90" height="30" as="geometry" />
        </mxCell>
        <mxCell id="gHPmyK4DkFUgCclRizUP-49" value="提交案卷集2" style="text;html=1;align=center;verticalAlign=middle;resizable=0;points=[];autosize=1;strokeColor=none;fillColor=none;" vertex="1" parent="1">
          <mxGeometry x="560" y="673" width="90" height="30" as="geometry" />
        </mxCell>
        <mxCell id="gHPmyK4DkFUgCclRizUP-50" value="" style="endArrow=none;html=1;rounded=0;startArrow=none;startFill=0;endFill=0;" edge="1" parent="1">
          <mxGeometry width="50" height="50" relative="1" as="geometry">
            <mxPoint x="485" y="665" as="sourcePoint" />
            <mxPoint x="600" y="610" as="targetPoint" />
            <Array as="points">
              <mxPoint x="485" y="610" />
            </Array>
          </mxGeometry>
        </mxCell>
        <mxCell id="gHPmyK4DkFUgCclRizUP-51" value="" style="endArrow=classic;html=1;rounded=0;" edge="1" parent="1">
          <mxGeometry width="50" height="50" relative="1" as="geometry">
            <mxPoint x="600" y="610" as="sourcePoint" />
            <mxPoint x="600" y="660" as="targetPoint" />
          </mxGeometry>
        </mxCell>
        <mxCell id="gHPmyK4DkFUgCclRizUP-53" value="时间" style="text;html=1;align=center;verticalAlign=middle;resizable=0;points=[];autosize=1;strokeColor=none;fillColor=none;" vertex="1" parent="1">
          <mxGeometry x="750" y="300" width="50" height="30" as="geometry" />
        </mxCell>
        <mxCell id="gHPmyK4DkFUgCclRizUP-54" value="时间" style="text;html=1;align=center;verticalAlign=middle;resizable=0;points=[];autosize=1;strokeColor=none;fillColor=none;" vertex="1" parent="1">
          <mxGeometry x="670" y="500" width="50" height="30" as="geometry" />
        </mxCell>
        <mxCell id="gHPmyK4DkFUgCclRizUP-55" value="时间" style="text;html=1;align=center;verticalAlign=middle;resizable=0;points=[];autosize=1;strokeColor=none;fillColor=none;" vertex="1" parent="1">
          <mxGeometry x="640" y="650" width="50" height="30" as="geometry" />
        </mxCell>
      </root>
    </mxGraphModel>
  </diagram>
</mxfile>
